<?xml version="1.0" encoding="utf-8"?>
<!-- Generator: Adobe Illustrator 23.0.3, SVG Export Plug-In . SVG Version: 6.00 Build 0)  -->
<svg version="1.1" id="Layer_1" xmlns="http://www.w3.org/2000/svg" xmlns:xlink="http://www.w3.org/1999/xlink" x="0px" y="0px"
	 viewBox="0 0 1007.8 1007.8" style="enable-background:new 0 0 1007.8 1007.8;" xml:space="preserve">
<style type="text/css">
	.st0{fill:none;}
	.st1{fill:#FF0040;}
	.st2{fill:#FFFFFF;}
</style>
<g id="QUIET_ZONE">
	<rect id="XMLID_34_" x="-97" y="-95.2" class="st0" width="1200" height="1200"/>
</g>
<g id="PRIMARY_LOGO">
	<g id="XMLID_781_">
		<g id="XMLID_784_">
			<circle id="XMLID_785_" class="st1" cx="503.9" cy="503.9" r="500"/>
		</g>
		<path id="XMLID_782_" class="st2" d="M602.5,688.7H415.8c-24.4,0-44.3-19.9-44.3-44.3V363.5c0-24.4,19.9-44.3,44.3-44.3h186.7
			c18.3,0,33.8,15.5,33.8,34.9c0,18.8-15.5,34.3-33.8,34.3H450.2v78.1h148.5c18.3,0,33.8,15.5,33.8,34.9c0,18.8-15.5,34.3-33.8,34.3
			H450.2v83.6h152.3c18.3,0,33.8,15.5,33.8,33.8C636.3,673.2,620.8,688.7,602.5,688.7z"/>
	</g>
</g>
</svg>
